<svg width="24" height="24" viewBox="0 0 24 24" fill="none" xmlns="http://www.w3.org/2000/svg">
<path d="M6.30589 17.9712C6.21652 18.4603 6.63298 18.8722 7.12749 18.7838C7.88158 18.6491 8.86635 18.4075 9.25454 18.0236C9.49544 17.7853 9.61164 17.4432 9.57757 17.0726C9.5435 16.702 9.36195 16.3331 9.07287 16.0472C8.78378 15.7613 8.41084 15.5818 8.03608 15.5481C7.66133 15.5144 7.31545 15.6293 7.07455 15.8676C6.6865 16.2513 6.4422 17.2253 6.30589 17.9712Z" fill="#E94500"/>
<path d="M7.77425 8.64281C10.7374 4.12636 15.4876 3.7066 17.9364 4.13499C18.3335 4.20461 18.6474 4.48261 18.7821 4.84105C20.6715 9.87191 18.4167 13.7056 16.5008 15.5334C16.1262 15.8909 15.9395 16.3745 16.0282 16.8215L16.12 17.2834C16.24 17.887 15.871 18.4819 15.2723 18.6496L12.7811 19.3469C12.1057 19.536 11.4124 19.1112 11.285 18.4289L11.036 17.0959C10.9844 16.82 10.8353 16.5712 10.6151 16.3948L8.12777 14.4035C7.90665 14.2266 7.62818 14.1345 7.34359 14.1428L5.72835 14.1897C4.9877 14.2112 4.40832 13.5657 4.51644 12.8401L4.89632 10.2912C4.98194 9.71734 5.47627 9.2895 6.06234 9.28148L6.69124 9.27171C7.11716 9.26594 7.52243 9.02649 7.77425 8.64281ZM14.4959 7.91429C13.8284 7.91436 13.2869 8.45568 13.2869 9.12327C13.2871 9.79078 13.8284 10.3322 14.4959 10.3323C15.1635 10.3323 15.7048 9.79082 15.7049 9.12327C15.7049 8.45564 15.1636 7.91429 14.4959 7.91429Z" fill="#E94500"/>
</svg>
